<svg id="_1" data-name="1" xmlns="http://www.w3.org/2000/svg" width="100.107" height="100" viewBox="0 0 100.107 100">
  <path id="Path_1565" data-name="Path 1565" d="M38.957,140.5a1.658,1.658,0,1,0,2.345-2.345l-4.026-4.026L41.3,130.1a1.658,1.658,0,0,0-2.345-2.345l-5.2,5.2a1.658,1.658,0,0,0,0,2.345Zm0,0" transform="translate(-25.912 -102.933)" fill="#fff"/>
  <path id="Path_1566" data-name="Path 1566" d="M117.442,134.122l-4.026,4.026a1.658,1.658,0,1,0,2.345,2.345l5.2-5.2a1.657,1.657,0,0,0,0-2.344l-5.2-5.2a1.658,1.658,0,1,0-2.344,2.345Zm0,0" transform="translate(-91.086 -102.93)" fill="#fff"/>
  <path id="Path_1567" data-name="Path 1567" d="M77.469,140.862a1.658,1.658,0,0,0,2.149-.937l4.083-10.4a1.657,1.657,0,1,0-3.085-1.213l-4.084,10.4A1.658,1.658,0,0,0,77.469,140.862Zm0,0" transform="translate(-59.491 -102.929)" fill="#fff"/>
  <path id="Path_1568" data-name="Path 1568" d="M39.173,221.531H50.342a1.658,1.658,0,0,0,0-3.316H39.173a1.658,1.658,0,0,0,0,3.316Zm0,0" transform="translate(-29.215 -175.815)" fill="#fff"/>
  <path id="Path_1569" data-name="Path 1569" d="M136.8,218.215H117.169a1.658,1.658,0,0,0,0,3.316H136.8a1.658,1.658,0,1,0,0-3.316Zm0,0" transform="translate(-93.681 -175.815)" fill="#fff"/>
  <path id="Path_1570" data-name="Path 1570" d="M39.173,253.137h4.758a1.658,1.658,0,0,0,0-3.316H39.173a1.658,1.658,0,0,0,0,3.316Zm0,0" transform="translate(-29.215 -201.266)" fill="#fff"/>
  <path id="Path_1571" data-name="Path 1571" d="M178.505,249.82a1.658,1.658,0,0,0,0,3.316h2.9a1.658,1.658,0,1,0,0-3.316Zm0,0" transform="translate(-142.534 -201.265)" fill="#fff"/>
  <path id="Path_1572" data-name="Path 1572" d="M102.858,251.478a1.658,1.658,0,0,0-1.658-1.658H86.97a1.658,1.658,0,0,0,0,3.316H101.2A1.658,1.658,0,0,0,102.858,251.478Zm0,0" transform="translate(-69.034 -201.266)" fill="#fff"/>
  <path id="Path_1573" data-name="Path 1573" d="M213.7,251.478a1.658,1.658,0,0,0,1.658,1.658h5.426a1.658,1.658,0,1,0,0-3.316h-5.426A1.658,1.658,0,0,0,213.7,251.478Zm0,0" transform="translate(-172.378 -201.266)" fill="#fff"/>
  <path id="Path_1574" data-name="Path 1574" d="M167.057,152.594h5.724a1.658,1.658,0,1,0,0-3.316h-5.724a1.658,1.658,0,1,0,0,3.316Zm0,0" transform="translate(-133.428 -120.304)" fill="#fff"/>
  <path id="Path_1575" data-name="Path 1575" d="M221.9,152.594h34.924a1.658,1.658,0,0,0,0-3.316H221.9a1.658,1.658,0,1,0,0,3.316Zm0,0" transform="translate(-180.069 -120.304)" fill="#fff"/>
  <path id="Path_1576" data-name="Path 1576" d="M305.988,182.246H291.841a1.658,1.658,0,0,0,0,3.316h14.147a1.658,1.658,0,0,0,0-3.316Zm0,0" transform="translate(-234.806 -146.851)" fill="#fff"/>
  <path id="Path_1577" data-name="Path 1577" d="M250.747,182.246h-4.863a1.658,1.658,0,0,0,0,3.316h4.863a1.658,1.658,0,0,0,0-3.316Zm0,0" transform="translate(-196.963 -146.851)" fill="#fff"/>
  <path id="Path_1578" data-name="Path 1578" d="M167.057,185.562h11.913a1.658,1.658,0,0,0,0-3.316H167.057a1.658,1.658,0,1,0,0,3.316Zm0,0" transform="translate(-133.72 -146.851)" fill="#fff"/>
  <path id="Path_1579" data-name="Path 1579" d="M112.072,281.16H100.9a1.658,1.658,0,1,0,0,3.315h11.168a1.658,1.658,0,1,0,0-3.315Zm0,0" transform="translate(-80.215 -226.502)" fill="#fff"/>
  <path id="Path_1580" data-name="Path 1580" d="M47.753,281.16h-8.58a1.658,1.658,0,1,0,0,3.315h8.58a1.658,1.658,0,1,0,0-3.315Zm0,0" transform="translate(-29.215 -226.502)" fill="#fff"/>
  <path id="Path_1581" data-name="Path 1581" d="M191.536,281.16H176.947a1.658,1.658,0,1,0,0,3.315h14.589a1.658,1.658,0,1,0,0-3.315Zm0,0" transform="translate(-141.862 -226.502)" fill="#fff"/>
  <path id="Path_1582" data-name="Path 1582" d="M303.982,242.668H296a1.658,1.658,0,0,0,0,3.316h7.978a1.658,1.658,0,0,0,0-3.316Zm0,0" transform="translate(-237.633 -195.506)" fill="#fff"/>
  <path id="Path_1583" data-name="Path 1583" d="M394.634,245.984H405.9a1.658,1.658,0,1,0,0-3.316H394.634a1.658,1.658,0,0,0,0,3.316Zm0,0" transform="translate(-319.201 -195.506)" fill="#fff"/>
  <path id="Path_1584" data-name="Path 1584" d="M360.095,242.668h-2.581a1.658,1.658,0,1,0,0,3.316h2.581a1.658,1.658,0,0,0,0-3.316Zm0,0" transform="translate(-286.78 -195.506)" fill="#fff"/>
  <path id="Path_1585" data-name="Path 1585" d="M296.005,327.644h7.978a1.658,1.658,0,1,0,0-3.315h-7.978a1.658,1.658,0,1,0,0,3.315Zm0,0" transform="translate(-237.634 -261.264)" fill="#fff"/>
  <path id="Path_1586" data-name="Path 1586" d="M394.634,327.644H405.9a1.658,1.658,0,1,0,0-3.315H394.634a1.658,1.658,0,1,0,0,3.315Zm0,0" transform="translate(-319.201 -261.264)" fill="#fff"/>
  <path id="Path_1587" data-name="Path 1587" d="M357.517,327.644H360.1a1.658,1.658,0,1,0,0-3.315h-2.581a1.658,1.658,0,1,0,0,3.315Zm0,0" transform="translate(-286.783 -261.264)" fill="#fff"/>
  <path id="Path_1588" data-name="Path 1588" d="M303.982,405.988H296a1.658,1.658,0,1,0,0,3.315h7.978a1.658,1.658,0,0,0,0-3.315Zm0,0" transform="translate(-237.633 -327.02)" fill="#fff"/>
  <path id="Path_1589" data-name="Path 1589" d="M405.9,405.988H394.634a1.658,1.658,0,0,0,0,3.315H405.9a1.658,1.658,0,1,0,0-3.315Zm0,0" transform="translate(-319.201 -327.02)" fill="#fff"/>
  <path id="Path_1590" data-name="Path 1590" d="M360.095,405.988h-2.581a1.658,1.658,0,1,0,0,3.315h2.581a1.658,1.658,0,0,0,0-3.315Zm0,0" transform="translate(-286.78 -327.02)" fill="#fff"/>
  <path id="Path_1591" data-name="Path 1591" d="M93.66.5H6.448A6.456,6.456,0,0,0,0,6.948v70.89a6.456,6.456,0,0,0,6.448,6.448h5.514a1.465,1.465,0,1,0,0-2.93H6.448A3.522,3.522,0,0,1,2.93,77.839V72.281H56.307v2.525H55.146a2.884,2.884,0,0,0-2.882,2.882v3.669H20.87a1.465,1.465,0,1,0,0,2.93H34.956v5.255H30.533a5.358,5.358,0,0,0-5.352,5.352v3.165a2.444,2.444,0,0,0,2.442,2.442H72.373a2.444,2.444,0,0,0,2.442-2.442V94.893a5.358,5.358,0,0,0-5.352-5.352H65.04V87.689H92.125a2.884,2.884,0,0,0,2.881-2.882v-.69A6.457,6.457,0,0,0,100,77.839l.111-70.891A6.454,6.454,0,0,0,93.66.5ZM55.195,68.793V61.77H92.076v7.023Zm4.043-9.953V55.757h28.8v3.083Zm28.8,12.883v3.083h-28.8V71.723ZM37.886,84.287H52.264v.522a2.884,2.884,0,0,0,2.882,2.881H62.11v1.852H37.886Zm31.578,8.185a2.424,2.424,0,0,1,2.421,2.421V97.57H28.111V94.893a2.424,2.424,0,0,1,2.422-2.421Zm22.612-7.713H55.195V77.737H92.076Zm4.99-6.92a3.519,3.519,0,0,1-2.06,3.2V77.687a2.885,2.885,0,0,0-2.882-2.881H90.963V72.281h6.1Zm0-8.488H94.959c.03-.166.048-7.63.048-7.63a2.885,2.885,0,0,0-2.882-2.882H90.963V55.757h1.162a2.885,2.885,0,0,0,2.882-2.882V45.755a2.885,2.885,0,0,0-2.882-2.882H83.85a1.465,1.465,0,0,0,0,2.931h8.227v7.023H55.195V45.8H74.733a1.465,1.465,0,0,0,0-2.931H55.146a2.885,2.885,0,0,0-2.882,2.882v7.121a2.885,2.885,0,0,0,2.882,2.882h1.162v3.083H55.146a2.885,2.885,0,0,0-2.882,2.882s.018,7.464.048,7.63H2.93V20.43H97.066Zm0-51.852H3.038V6.948A3.521,3.521,0,0,1,6.556,3.43H93.549a3.522,3.522,0,0,1,3.518,3.518Zm0,0" transform="translate(0 -0.5)" fill="#fff"/>
  <path id="Path_1592" data-name="Path 1592" d="M38.138,29.262A4.865,4.865,0,1,0,43,34.126,4.87,4.87,0,0,0,38.138,29.262Zm0,6.414a1.55,1.55,0,1,1,1.55-1.55A1.551,1.551,0,0,1,38.138,35.676Zm0,0" transform="translate(-25.912 -22.898)" fill="#fff"/>
  <path id="Path_1593" data-name="Path 1593" d="M94.123,29.262a4.865,4.865,0,1,0,4.865,4.865A4.871,4.871,0,0,0,94.123,29.262Zm0,6.414a1.55,1.55,0,1,1,1.55-1.55A1.551,1.551,0,0,1,94.123,35.676Zm0,0" transform="translate(-72.021 -22.898)" fill="#fff"/>
  <path id="Path_1594" data-name="Path 1594" d="M150.11,29.262a4.865,4.865,0,1,0,4.866,4.865A4.87,4.87,0,0,0,150.11,29.262Zm0,6.414a1.55,1.55,0,1,1,1.55-1.55A1.552,1.552,0,0,1,150.11,35.676Zm0,0" transform="translate(-117.198 -22.898)" fill="#fff"/>
</svg>
