<svg id="_2" data-name="2" xmlns="http://www.w3.org/2000/svg" width="94.359" height="100" viewBox="0 0 94.359 100">
  <path id="Path_1603" data-name="Path 1603" d="M65.392,272.782H16.663A13.349,13.349,0,0,1,3.318,259.459V210.741a1.659,1.659,0,0,0-3.319,0v48.717A16.671,16.671,0,0,0,16.663,276.1H65.392a1.659,1.659,0,1,0,0-3.319Zm0,0" transform="translate(0 -176.1)" fill="#fff"/>
  <path id="Path_1604" data-name="Path 1604" d="M94.359,23.4a23.321,23.321,0,0,0-3.542-12.379,1.465,1.465,0,1,0-2.484,1.553A20.522,20.522,0,1,1,83.967,7.6,1.465,1.465,0,1,0,85.83,5.344,23.451,23.451,0,0,0,50.576,11.8H14.71A14.718,14.718,0,0,0,0,26.492v8.893a1.465,1.465,0,0,0,2.93,0V26.492A11.785,11.785,0,0,1,14.71,14.729H49.157A23.423,23.423,0,0,0,82.883,43.524V85.309A11.785,11.785,0,0,1,71.1,97.07H64.6a1.465,1.465,0,1,0,0,2.93h6.5a14.718,14.718,0,0,0,14.71-14.691V41.465A23.354,23.354,0,0,0,94.359,23.4Zm0,0" transform="translate(0 0)" fill="#fff"/>
  <path id="Path_1605" data-name="Path 1605" d="M344.768,89.629a1.66,1.66,0,0,0,1.659-1.659V67.3a1.66,1.66,0,0,0-2.777-1.227l-3.556,3.238a1.659,1.659,0,0,0,2.234,2.454l.78-.71V87.97a1.659,1.659,0,0,0,1.659,1.659Zm0,0" transform="translate(-273.839 -51.122)" fill="#fff"/>
  <path id="Path_1606" data-name="Path 1606" d="M79.121,339.406a1.156,1.156,0,0,0,1.265-.758l1.4-4.889h8.424l1.419,4.9q.261.745,1.343.745a3.316,3.316,0,0,0,1.694-.466,1.321,1.321,0,0,0,.8-1.111,1.168,1.168,0,0,0-.068-.322l-6.786-22.176q-.437-1.147-2.473-1.147-2,0-2.436,1.231L76.9,337.6a1.017,1.017,0,0,0-.035.308,1.263,1.263,0,0,0,.718,1.06,2.88,2.88,0,0,0,1.539.443Zm6.858-20.266,3.436,11.745h-6.8Zm0,0" transform="translate(-62.271 -255.154)" fill="#fff"/>
  <path id="Path_1607" data-name="Path 1607" d="M173.743,340.13a2.416,2.416,0,0,0,1.285-.325.986.986,0,0,0,.531-.873v-8.453h4.249a8.244,8.244,0,0,0,5.6-1.83q2.108-1.83,2.108-5.732v-.273q0-3.9-2.04-5.715a7.925,7.925,0,0,0-5.466-1.814h-6.683a1.491,1.491,0,0,0-1.011.342,1.052,1.052,0,0,0-.394.821v22.655a.983.983,0,0,0,.549.873,2.437,2.437,0,0,0,1.268.325Zm1.817-21.8h4.249a4.009,4.009,0,0,1,3.016,1.095,4.6,4.6,0,0,1,1.062,3.32v.41a4.666,4.666,0,0,1-1.062,3.337,3.974,3.974,0,0,1-3.016,1.112h-4.249Zm0,0" transform="translate(-139.108 -255.884)" fill="#fff"/>
  <path id="Path_1608" data-name="Path 1608" d="M271.945,322.642q0-3.9-2.039-5.714a7.926,7.926,0,0,0-5.466-1.814h-6.683a1.485,1.485,0,0,0-1.011.342,1.052,1.052,0,0,0-.394.821v22.655a.982.982,0,0,0,.548.873,2.671,2.671,0,0,0,2.554,0,.985.985,0,0,0,.531-.873v-8.453h4.25a8.246,8.246,0,0,0,5.6-1.83q2.107-1.83,2.107-5.732Zm-3.632.513a4.667,4.667,0,0,1-1.063,3.337,3.971,3.971,0,0,1-3.015,1.112h-4.25V318.33h4.25a4.005,4.005,0,0,1,3.015,1.095,4.6,4.6,0,0,1,1.063,3.319Zm0,0" transform="translate(-207.418 -255.884)" fill="#fff"/>
</svg>
