<svg id="_3" data-name="3" xmlns="http://www.w3.org/2000/svg" width="92.492" height="100" viewBox="0 0 92.492 100">
  <path id="Path_1597" data-name="Path 1597" d="M405.254,23.8H392.339a1.659,1.659,0,0,0,0,3.319h12.915a.554.554,0,0,1,.553.553V92.686a1.659,1.659,0,1,0,3.319,0V27.673a3.875,3.875,0,0,0-3.872-3.872Zm0,0" transform="translate(-316.635 -18.535)" fill="#fff"/>
  <path id="Path_1598" data-name="Path 1598" d="M91.527,70.376a1.465,1.465,0,0,0-1.465,1.465V91.6a5.47,5.47,0,1,1-10.941,0V59.017a8.4,8.4,0,0,0-16.8,0v9.908a5.471,5.471,0,0,1-10.941,0V61.614l7.456-7.457A3.959,3.959,0,0,0,59.874,50.4l17.97-17.97a3.968,3.968,0,0,0,0-5.6L58.6,7.579H71.792a1.465,1.465,0,0,0,0-2.93H55.668L52.179,1.16a3.968,3.968,0,0,0-5.6,0L28.606,19.128a4,4,0,0,0-.957-.121,3.938,3.938,0,0,0-2.8,1.16L17.074,27.94a3.967,3.967,0,0,0,0,5.6L27.382,43.852A82.388,82.388,0,0,1,11.58,55.8a24.77,24.77,0,0,0-4.917,3.841A21.986,21.986,0,0,0,1,68.671C.024,72.038.483,74.893,2.3,76.707a6.568,6.568,0,0,0,4.789,1.8c2.808,0,6.165-1.27,9.455-3.726a1.465,1.465,0,1,0-1.752-2.348c-4.188,3.125-8.569,4.05-10.42,2.2-1.009-1.009-1.209-2.884-.551-5.145a19.026,19.026,0,0,1,4.917-7.773,21.781,21.781,0,0,1,4.331-3.388,85.321,85.321,0,0,0,16.387-12.4l3.626,3.625a85.319,85.319,0,0,0-12.4,16.388,20.642,20.642,0,0,1-1.591,2.31,1.465,1.465,0,0,0,2.3,1.816,23.458,23.458,0,0,0,1.816-2.64,82.4,82.4,0,0,1,11.952-15.8L45.459,61.929a3.934,3.934,0,0,0,2.8,1.161c.063,0,.126-.006.188-.009v5.845a8.4,8.4,0,0,0,16.8,0V59.017a5.471,5.471,0,0,1,10.941,0V91.6a8.4,8.4,0,1,0,16.8,0V71.841a1.465,1.465,0,0,0-1.466-1.465ZM48.646,3.231a1.034,1.034,0,0,1,1.461,0L75.772,28.9a1.033,1.033,0,0,1,0,1.46L58.206,47.923l-6.852-6.852L54.322,38.1a1.465,1.465,0,0,0-2.071-2.072L49.282,39,38.907,28.624l2.969-2.968A1.465,1.465,0,1,0,39.8,23.585l-2.969,2.968-1.579-1.579L46.939,13.292a1.465,1.465,0,0,0-2.071-2.072L33.185,22.9l-2.1-2.1ZM47.531,59.857,19.146,31.473a1.034,1.034,0,0,1,0-1.461l7.773-7.772a1.032,1.032,0,0,1,1.461,0L56.764,50.624a1.034,1.034,0,0,1,0,1.461l-7.772,7.772a1.032,1.032,0,0,1-1.461,0Zm0,0" transform="translate(-0.5 -0.001)" fill="#fff"/>
  <path id="Path_1599" data-name="Path 1599" d="M138.3,173.109a1.659,1.659,0,0,0-2.347,2.346l17.554,17.554a1.659,1.659,0,1,0,2.346-2.347Zm0,0" transform="translate(-109.976 -139.918)" fill="#fff"/>
  <path id="Path_1600" data-name="Path 1600" d="M418.149,182.277h-.017a1.668,1.668,0,1,0,.017,0Zm0,0" transform="translate(-336.727 -146.819)" fill="#fff"/>
  <path id="Path_1601" data-name="Path 1601" d="M424.461,202.777a1.659,1.659,0,0,0,.037,3.319h.022a1.659,1.659,0,0,0-.021-3.319h-.021Zm0,0" transform="translate(-341.673 -163.331)" fill="#fff"/>
  <path id="Path_1602" data-name="Path 1602" d="M377.838,225.883a1.668,1.668,0,1,0,.017,0Zm0,0" transform="translate(-303.13 -181.942)" fill="#fff"/>
</svg>
