<svg id="_4" data-name="4" xmlns="http://www.w3.org/2000/svg" width="110.588" height="100" viewBox="0 0 110.588 100">
  <path id="Path_1613" data-name="Path 1613" d="M108.824,22.5H1.765A1.765,1.765,0,0,0,0,24.265v96.471A1.765,1.765,0,0,0,1.765,122.5H108.824a1.765,1.765,0,0,0,1.765-1.765V101.912a1.765,1.765,0,0,0-3.529,0v17.059H3.529V40.147H107.059V94.853a1.765,1.765,0,0,0,3.529,0V24.265A1.765,1.765,0,0,0,108.824,22.5ZM3.529,26.029H68.824V36.618H3.529ZM72.353,36.618V26.029h34.706V36.618Z" transform="translate(0 -22.5)" fill="#fff"/>
  <path id="Path_1614" data-name="Path 1614" d="M375.27,52a1.77,1.77,0,1,0,1.77,1.77A1.772,1.772,0,0,0,375.27,52Z" transform="translate(-285.433 -45.473)" fill="#fff"/>
  <path id="Path_1615" data-name="Path 1615" d="M334.27,52a1.77,1.77,0,1,0,1.77,1.77A1.772,1.772,0,0,0,334.27,52Z" transform="translate(-254.1 -45.473)" fill="#fff"/>
  <path id="Path_1616" data-name="Path 1616" d="M416.27,52a1.77,1.77,0,1,0,1.77,1.77A1.772,1.772,0,0,0,416.27,52Z" transform="translate(-316.191 -45.473)" fill="#fff"/>
  <path id="Path_1617" data-name="Path 1617" d="M96.523,169.5a1.659,1.659,0,0,0,1.384-1.17l3.817-12.742a1.659,1.659,0,0,0-3.179-.952l-2.738,9.139-2.639-4.4a1.659,1.659,0,0,0-2.847,0l-2.639,4.4-2.737-9.137a1.659,1.659,0,0,0-3.179.952l3.817,12.74a1.659,1.659,0,0,0,3.013.377l3.149-5.256,3.149,5.256A1.66,1.66,0,0,0,96.523,169.5Z" transform="translate(-62.198 -122.26)" fill="#fff"/>
  <path id="Path_1618" data-name="Path 1618" d="M187.806,169.492a1.659,1.659,0,0,0,1.629-.794l3.149-5.256,3.149,5.256a1.659,1.659,0,0,0,3.013-.377l3.817-12.742a1.659,1.659,0,0,0-3.179-.952l-2.738,9.139-2.639-4.4a1.659,1.659,0,0,0-2.847,0l-2.639,4.4-2.737-9.137a1.659,1.659,0,0,0-3.179.952l3.817,12.741A1.66,1.66,0,0,0,187.806,169.492Z" transform="translate(-138.971 -122.254)" fill="#fff"/>
  <path id="Path_1619" data-name="Path 1619" d="M302.286,153.508a1.66,1.66,0,0,0-2.066,1.113l-2.738,9.138-2.639-4.4a1.659,1.659,0,0,0-2.847,0l-2.639,4.4-2.737-9.137a1.659,1.659,0,0,0-3.179.952l3.817,12.74a1.659,1.659,0,0,0,3.013.377l3.149-5.256,3.149,5.256a1.659,1.659,0,0,0,3.013-.377l3.817-12.742A1.659,1.659,0,0,0,302.286,153.508Z" transform="translate(-215.742 -122.25)" fill="#fff"/>
  <path id="Path_1620" data-name="Path 1620" d="M93.868,262.706a1.659,1.659,0,0,0-1.659-1.659h-8.85a1.659,1.659,0,0,0-1.659,1.659v8.85a1.659,1.659,0,0,0,1.659,1.659h8.85a1.659,1.659,0,0,0,1.659-1.659ZM90.55,269.9H85.019v-5.531H90.55Z" transform="translate(-62.324 -204.42)" fill="#fff"/>
  <path id="Path_1621" data-name="Path 1621" d="M92.209,331.047h-8.85a1.659,1.659,0,0,0-1.659,1.659v8.85a1.659,1.659,0,0,0,1.659,1.659h8.85a1.659,1.659,0,0,0,1.659-1.659v-8.85A1.659,1.659,0,0,0,92.209,331.047ZM90.55,339.9H85.019v-5.531H90.55Z" transform="translate(-62.324 -258.475)" fill="#fff"/>
  <path id="Path_1622" data-name="Path 1622" d="M337.509,281.047h-6.637a1.659,1.659,0,0,0,0,3.319h6.637a1.659,1.659,0,0,0,0-3.319Z" transform="translate(-251.261 -220.079)" fill="#fff"/>
  <path id="Path_1623" data-name="Path 1623" d="M186,281.047H153.359a1.659,1.659,0,1,0,0,3.319H186a1.659,1.659,0,1,0,0-3.319Z" transform="translate(-114.879 -220.079)" fill="#fff"/>
  <path id="Path_1624" data-name="Path 1624" d="M337.509,351.047h-6.637a1.659,1.659,0,0,0,0,3.319h6.637a1.659,1.659,0,0,0,0-3.319Z" transform="translate(-251.261 -273.573)" fill="#fff"/>
  <path id="Path_1625" data-name="Path 1625" d="M186,351.047H153.359a1.659,1.659,0,1,0,0,3.319H186a1.659,1.659,0,1,0,0-3.319Z" transform="translate(-114.879 -273.573)" fill="#fff"/>
</svg>
