<svg id="_5" data-name="5" xmlns="http://www.w3.org/2000/svg" width="86.698" height="100" viewBox="0 0 86.698 100">
  <path id="Path_1595" data-name="Path 1595" d="M86.7,67.936a19.175,19.175,0,0,0-.664-4.981,1.491,1.491,0,1,0-2.879.777,16.271,16.271,0,0,1,.561,4.208,15.7,15.7,0,0,1-9.183,14.343A1.491,1.491,0,0,0,75.77,85,18.662,18.662,0,0,0,79.8,82.49a29.067,29.067,0,0,1-44.872,6.831H49.409a7.267,7.267,0,0,0,7.259-7.259V81.63a7.345,7.345,0,0,0-1.425-4.319c-4.234-5.858-3.867-14.606.835-19.915a16.185,16.185,0,0,1,2.5-2.286,1.49,1.49,0,0,0,.17-2.254L47.656,41.764a5.859,5.859,0,0,1,8.285-8.287l8.013,8.013.007.007,15.011,15.01a16.255,16.255,0,0,1,1.889,2.271,1.491,1.491,0,0,0,2.457-1.691A19.2,19.2,0,0,0,81.08,54.4L66.5,39.821V7.152A7.16,7.16,0,0,0,59.352,0H25.664a1.491,1.491,0,1,0,0,2.982H59.352a4.173,4.173,0,0,1,4.168,4.17V8.686H9.995V7.152a4.175,4.175,0,0,1,4.17-4.17H19.7A1.491,1.491,0,0,0,19.7,0H14.165A7.16,7.16,0,0,0,7.013,7.152V29.383A8.5,8.5,0,0,0,3.7,44.77,8.5,8.5,0,0,0,7.013,60.157V82.17a7.159,7.159,0,0,0,7.152,7.15H30.75c.4.446.806.878,1.218,1.289A32.059,32.059,0,0,0,86.69,68.489c0-.184.008-.368.007-.553ZM63.52,11.669v25.17l-5.47-5.471a8.842,8.842,0,0,0-12.5,12.5l9.922,9.922a18.315,18.315,0,0,0-5.977,16.575H9.995v-58.7ZM2.981,37.755a5.532,5.532,0,0,1,4.032-5.317V43.072a5.531,5.531,0,0,1-4.032-5.317Zm0,14.029a5.532,5.532,0,0,1,4.032-5.317V57.1a5.532,5.532,0,0,1-4.032-5.317ZM9.995,82.171v-8.82H50.09a18.176,18.176,0,0,0,2.736,5.708,4.383,4.383,0,0,1,.86,2.572v.431a4.281,4.281,0,0,1-4.276,4.276H14.165a4.174,4.174,0,0,1-4.17-4.168Zm0,0" transform="translate(0.001 0)" fill="#fff"/>
  <path id="Path_1596" data-name="Path 1596" d="M169.32,400.289H159.048a1.689,1.689,0,0,0,0,3.378H169.32a1.689,1.689,0,0,0,0-3.378Zm0,0" transform="translate(-127.284 -322.427)" fill="#fff"/>
</svg>
